<svg version="1.0" xmlns="http://www.w3.org/2000/svg"
 width="1200.000000pt" height="1200.000000pt" viewBox="0 0 1200.000000 1200.000000"
 preserveAspectRatio="xMidYMid meet">

<g transform="translate(0.000000,1200.000000) scale(0.100000,-0.100000)"
fill="#000000" stroke="none">
<path d="M5695 10239 c-474 -43 -887 -137 -1265 -289 -136 -54 -385 -174 -525
-253 -648 -363 -1240 -955 -1602 -1602 -312 -557 -477 -1096 -538 -1758 -56
-608 51 -1322 285 -1907 88 -221 256 -545 379 -734 330 -506 793 -966 1291
-1283 357 -227 773 -410 1165 -513 760 -199 1470 -199 2230 0 392 103 808 286
1165 513 573 365 1092 911 1417 1492 312 557 477 1096 538 1758 56 608 -51
1323 -285 1907 -54 135 -174 385 -253 525 -284 509 -712 985 -1220 1359 -297
218 -736 444 -1112 573 -203 69 -533 146 -760 178 -295 42 -673 56 -910 34z
m842 -118 c294 -42 515 -94 773 -180 460 -154 887 -383 1255 -675 555 -440
979 -992 1256 -1638 112 -261 200 -548 258 -843 58 -298 66 -387 66 -785 0
-398 -8 -487 -66 -785 -59 -299 -144 -578 -258 -843 -230 -535 -575 -1027
-991 -1411 -453 -418 -951 -713 -1522 -902 -268 -89 -516 -146 -808 -186 -196
-26 -804 -26 -1000 0 -292 40 -540 97 -808 186 -469 155 -892 385 -1277 691
-542 432 -963 985 -1236 1622 -114 265 -199 544 -258 843 -58 298 -66 387 -66
785 0 398 8 487 66 785 41 210 70 320 138 523 155 469 385 892 691 1277 432
542 985 963 1622 1236 346 149 752 258 1123 303 194 24 203 24 565 21 276 -2
360 -7 477 -24z"/>
<path d="M5925 9194 c-265 -24 -423 -67 -627 -171 -229 -116 -432 -296 -571
-505 -191 -288 -268 -542 -268 -883 0 -210 25 -358 88 -530 192 -518 606 -879
1144 -997 89 -19 133 -22 309 -22 176 0 220 3 310 22 587 128 1047 569 1189
1140 73 295 56 652 -46 927 -40 109 -128 276 -196 371 -81 114 -250 283 -360
361 -152 107 -354 200 -522 242 -130 31 -352 54 -450 45z m-631 -774 c93 -35
156 -113 184 -230 6 -25 16 -103 22 -175 17 -217 39 -278 119 -340 51 -40 114
-62 209 -71 l64 -7 -4 334 c-3 313 -5 337 -23 369 -26 44 -79 70 -155 77 -50
5 -60 9 -60 24 0 18 15 19 350 19 335 0 350 -1 350 -19 0 -15 -10 -19 -59 -24
-76 -6 -125 -31 -152 -74 -21 -33 -22 -49 -27 -370 l-5 -336 74 7 c170 17 267
92 298 231 6 28 18 118 26 200 20 206 53 294 135 350 72 50 220 75 220 37 0
-11 -12 -22 -33 -30 -58 -21 -68 -54 -77 -240 -10 -204 -24 -291 -55 -360 -66
-144 -179 -219 -386 -256 -46 -9 -111 -18 -143 -22 l-59 -6 6 -259 c7 -291 11
-311 75 -346 20 -12 65 -24 100 -28 52 -6 62 -10 62 -26 0 -18 -13 -19 -350
-19 -336 0 -350 1 -350 19 0 15 10 20 58 26 31 4 76 15 100 25 70 31 74 52 80
352 l5 256 -44 6 c-24 3 -69 8 -99 11 -144 16 -284 73 -359 145 -93 91 -125
196 -139 465 -11 206 -20 236 -77 255 -24 8 -35 18 -35 31 0 16 7 19 50 19 27
0 74 -9 104 -20z"/>
<path d="M4645 5635 c-5 -2 -27 -6 -48 -10 -45 -7 -102 -55 -124 -104 -10 -22
-16 -66 -17 -116 -1 -112 19 -152 147 -283 57 -59 109 -116 114 -127 18 -35
25 -99 13 -130 -14 -36 -26 -45 -65 -45 -16 0 -35 4 -42 8 -18 11 -33 58 -33
103 l0 39 -71 0 -72 0 6 -80 c6 -91 23 -127 80 -174 37 -30 43 -31 130 -31
111 0 147 17 192 90 28 45 30 55 30 139 -1 126 -17 158 -154 299 -69 72 -112
125 -116 143 -4 16 -9 37 -11 46 -8 29 22 87 49 93 25 7 66 -8 79 -29 4 -6 8
-32 8 -58 l0 -48 76 0 76 0 -7 63 c-16 140 -66 195 -190 211 -22 3 -44 3 -50
1z"/>
<path d="M6080 5633 c-86 -15 -149 -68 -169 -140 -15 -52 -14 -615 0 -668 16
-58 55 -104 107 -127 64 -29 184 -22 233 12 88 62 92 78 97 397 2 161 0 298
-7 338 -12 81 -46 137 -99 164 -39 20 -120 32 -162 24z m75 -145 c14 -6 29
-23 33 -37 4 -14 7 -153 7 -307 0 -263 -1 -283 -19 -303 -12 -13 -31 -21 -50
-21 -73 1 -76 13 -76 345 l0 286 25 24 c27 28 42 30 80 13z"/>
<path d="M3960 5155 l0 -465 75 0 75 0 0 189 0 188 79 5 c64 4 88 10 119 30
66 44 77 80 77 249 0 143 -1 146 -28 188 -45 68 -85 81 -254 81 l-143 0 0
-465z m262 308 c15 -13 18 -32 18 -112 0 -123 -10 -141 -81 -141 l-49 0 0 141
0 142 47 -7 c25 -3 55 -14 65 -23z"/>
<path d="M4970 5155 l0 -465 75 0 75 0 0 465 0 465 -75 0 -75 0 0 -465z"/>
<path d="M5400 5555 l0 -64 73 -3 72 -3 3 -397 2 -398 75 0 75 0 0 400 0 400
75 0 75 0 0 65 0 65 -225 0 -225 0 0 -65z"/>
<path d="M6610 5555 l0 -64 78 -3 77 -3 3 -397 2 -398 75 0 75 0 0 400 0 400
75 0 75 0 0 65 0 65 -230 0 -230 0 0 -65z"/>
<path d="M7130 5155 l0 -465 80 0 80 0 0 210 0 211 73 -3 72 -3 3 -207 2 -208
75 0 75 0 0 465 0 465 -75 0 -75 0 0 -185 0 -185 -75 0 -75 0 0 185 0 185 -80
0 -80 0 0 -465z"/>
<path d="M7690 5155 l0 -465 200 0 200 0 0 70 0 70 -125 0 -125 0 0 140 0 140
100 0 100 0 0 70 0 70 -100 0 -101 0 3 118 3 117 123 3 122 3 0 64 0 65 -200
0 -200 0 0 -465z"/>
<path d="M5350 4323 c-86 -15 -149 -68 -169 -140 -15 -52 -14 -615 0 -668 16
-58 55 -104 107 -127 64 -29 184 -22 233 12 88 62 92 78 97 397 2 161 0 298
-7 338 -12 81 -46 137 -99 164 -39 20 -120 32 -162 24z m75 -145 c14 -6 29
-23 33 -37 4 -14 7 -153 7 -307 0 -263 -1 -283 -19 -303 -12 -13 -31 -21 -50
-21 -73 1 -76 13 -76 345 l0 286 25 24 c27 28 42 30 80 13z"/>
<path d="M4670 3845 l0 -465 75 0 75 0 0 189 0 188 79 5 c64 4 88 10 119 30
66 44 77 80 77 249 0 143 -1 146 -28 188 -45 68 -85 81 -254 81 l-143 0 0
-465z m262 308 c15 -13 18 -32 18 -112 0 -123 -10 -141 -81 -141 l-49 0 0 141
0 142 47 -7 c25 -3 55 -14 65 -23z"/>
<path d="M5680 4283 c0 -30 75 -789 85 -860 l6 -43 100 0 c72 0 99 3 99 13 0
24 60 570 63 573 2 2 16 -121 31 -274 15 -152 30 -285 33 -295 4 -16 15 -17
96 -15 l92 3 41 406 c23 224 44 432 47 463 l6 56 -65 0 c-58 0 -64 -2 -68 -22
-3 -13 -18 -165 -33 -338 -31 -360 -28 -363 -69 68 l-27 292 -82 0 -82 0 -6
-52 c-3 -29 -18 -180 -33 -335 -15 -156 -29 -282 -30 -280 -2 1 -14 131 -28
287 -15 157 -29 306 -32 333 l-6 47 -69 0 c-69 0 -69 0 -69 -27z"/>
<path d="M6450 3845 l0 -465 200 0 200 0 0 70 0 70 -125 0 -125 0 0 140 0 140
100 0 101 0 -3 68 -3 67 -97 3 -98 3 0 119 0 120 125 0 125 0 0 65 0 65 -200
0 -200 0 0 -465z"/>
<path d="M6930 3846 l0 -466 75 0 75 0 0 201 0 202 48 -7 c75 -10 82 -24 83
-180 0 -72 3 -149 7 -171 l7 -40 77 -3 76 -3 -4 38 c-2 21 -6 101 -8 178 -6
163 -16 205 -56 238 l-29 25 26 23 c42 39 53 79 53 191 0 121 -19 174 -78 210
-34 21 -51 23 -194 26 l-158 4 0 -466z m263 303 c13 -16 17 -40 17 -105 0
-103 -14 -124 -85 -124 l-45 0 0 131 0 132 48 -7 c30 -4 53 -13 65 -27z"/>
</g>
</svg>
